HIERARCHY
ROOT Hips
{
	OFFSET 0.00000 0.00000 0.00000
	CHANNELS 6 Xposition Yposition Zposition Zrotation Yrotation Xrotation 
	JOINT LHipJoint
	{
		OFFSET 0 0 0
		CHANNELS 3 Zrotation Yrotation Xrotation
		JOINT LeftUpLeg
		{
			OFFSET 1.57338 -1.94743 0.52196
			CHANNELS 3 Zrotation Yrotation Xrotation
			JOINT LeftLeg
			{
				OFFSET 2.60333 -7.15259 0.00000
				CHANNELS 3 Zrotation Yrotation Xrotation
				JOINT LeftFoot
				{
					OFFSET 2.77855 -7.63400 0.00000
					CHANNELS 3 Zrotation Yrotation Xrotation
					JOINT LeftToeBase
					{
						OFFSET 0.19847 -0.54529 2.28466
						CHANNELS 3 Zrotation Yrotation Xrotation
						End Site
						{
							OFFSET 0.00000 -0.00000 1.17993
						}
					}
				}
			}
		}
	}
	JOINT RHipJoint
	{
		OFFSET 0 0 0
		CHANNELS 3 Zrotation Yrotation Xrotation
		JOINT RightUpLeg
		{
			OFFSET -1.61527 -1.94743 0.52196
			CHANNELS 3 Zrotation Yrotation Xrotation
			JOINT RightLeg
			{
				OFFSET -2.53829 -6.97390 0.00000
				CHANNELS 3 Zrotation Yrotation Xrotation
				JOINT RightFoot
				{
					OFFSET -2.80762 -7.71387 0.00000
					CHANNELS 3 Zrotation Yrotation Xrotation
					JOINT RightToeBase
					{
						OFFSET -0.30536 -0.83898 2.28801
						CHANNELS 3 Zrotation Yrotation Xrotation
						End Site
						{
							OFFSET -0.00000 -0.00000 1.21323
						}
					}
				}
			}
		}
	}
	JOINT LowerBack
	{
		OFFSET 0 0 0
		CHANNELS 3 Zrotation Yrotation Xrotation
		JOINT Spine
		{
			OFFSET -0.04381 1.99497 -0.19778
			CHANNELS 3 Zrotation Yrotation Xrotation
			JOINT Spine1
			{
				OFFSET -0.01959 2.01295 -0.04372
				CHANNELS 3 Zrotation Yrotation Xrotation
				JOINT Neck
				{
					OFFSET 0 0 0
					CHANNELS 3 Zrotation Yrotation Xrotation
					JOINT Neck1
					{
						OFFSET -0.05459 1.76913 0.09708
						CHANNELS 3 Zrotation Yrotation Xrotation
						JOINT Head
						{
							OFFSET 0.09461 1.77368 -0.11172
							CHANNELS 3 Zrotation Yrotation Xrotation
							End Site
							{
								OFFSET 0.03812 1.78157 -0.04834
							}
						}
					}
				}
				JOINT LeftShoulder
				{
					OFFSET 0 0 0
					CHANNELS 3 Zrotation Yrotation Xrotation
					JOINT LeftArm
					{
						OFFSET 3.50922 1.24034 -0.28866
						CHANNELS 3 Zrotation Yrotation Xrotation
						JOINT LeftForeArm
						{
							OFFSET 5.40188 -0.00000 0.00000
							CHANNELS 3 Zrotation Yrotation Xrotation
							JOINT LeftHand
							{
								OFFSET 3.68559 -0.00000 0.00000
								CHANNELS 3 Zrotation Yrotation Xrotation
								JOINT LeftFingerBase
								{
									OFFSET 0 0 0
									CHANNELS 3 Zrotation Yrotation Xrotation
									JOINT LeftHandIndex1
									{
										OFFSET 0.61753 -0.00000 0.00000
										CHANNELS 3 Zrotation Yrotation Xrotation
										End Site
										{
											OFFSET 0.49787 -0.00000 0.00000
										}
									}
								}
								JOINT LThumb
								{
									OFFSET 0 0 0
									CHANNELS 3 Zrotation Yrotation Xrotation
									End Site
									{
										OFFSET 0.50547 -0.00000 0.50547
									}
								}
							}
						}
					}
				}
				JOINT RightShoulder
				{
					OFFSET 0 0 0
					CHANNELS 3 Zrotation Yrotation Xrotation
					JOINT RightArm
					{
						OFFSET -2.95373 1.39649 -0.27346
						CHANNELS 3 Zrotation Yrotation Xrotation
						JOINT RightForeArm
						{
							OFFSET -6.10670 -0.00000 -0.00000
							CHANNELS 3 Zrotation Yrotation Xrotation
							JOINT RightHand
							{
								OFFSET -3.63052 -0.00000 0.00000
								CHANNELS 3 Zrotation Yrotation Xrotation
								JOINT RightFingerBase
								{
									OFFSET 0 0 0
									CHANNELS 3 Zrotation Yrotation Xrotation
									JOINT RightHandIndex1
									{
										OFFSET -0.58385 -0.00000 0.00000
										CHANNELS 3 Zrotation Yrotation Xrotation
										End Site
										{
											OFFSET -0.47071 -0.00000 0.00000
										}
									}
								}
								JOINT RThumb
								{
									OFFSET 0 0 0
									CHANNELS 3 Zrotation Yrotation Xrotation
									End Site
									{
										OFFSET -0.47790 -0.00000 0.47790
									}
								}
							}
						}
					}
				}
			}
		}
	}
}
MOTION
Frames: 16
Frame Time: .0083333
4.1019 17.5181 -3.8664 0 0 0 0 0 0 -21 0 0 0 0 0 0 0 0 0 0 0 0 0 0 21 0 0 0 0 0 0 0 0 0 0 0 0 0 0 0 0 0 0 0 0 0 0 -16 0 0 21 0 0 11 0 0 0 -8 0 0 0 0 0 0 0 0 0 0 0 0 0 0 0 0 0 0 0 0 8 0 0 0 0 0 0 0 0 0 0 0 0 0 0 0 0 0
4.1019 17.5181 -3.8664 7.2842 -41.4403 -4.2457 0.0000 0.0000 0.0000 -15.4784 -10.0626 -18.6067 6.3638 14.7718 46.4248 1.4732 -5.6690 -21.7964 0.3890 -4.0049 -11.0905 0.0000 0.0000 0.0000 11.2425 19.8869 -10.2541 -7.8152 -15.9816 51.8943 -3.1741 -3.8982 -35.2053 -0.6281 5.0713 -14.1121 -3.9020 0.0478 10.1949 -0.6480 -0.4079 2.1585 1.5770 -0.1832 -3.4446 -5.7337 1.5502 -10.2830 3.9778 2.5117 7.8258 2.3034 1.2855 3.8874 0.0000 -0.0000 0.0000 -82.3843 -6.5894 21.5654 144.4391 -45.2085 -104.7900 -0.0000 0.0000 -6.4349 29.2760 17.7146 9.6805 -7.1250 0.0000 -0.0000 1.2761 50.0879 0.1601 0.0000 -0.0000 0.0000 73.1296 3.7381 50.6357 -108.0454 58.7331 -75.5613 0.0000 -0.0000 -1.2929 -33.6330 7.7670 -5.1372 7.1250 -0.0000 -0.0000 -4.8999 -20.6919 -2.8628
4.1139 17.5119 -3.8377 7.3769 -41.6564 -4.5670 0.0000 0.0000 0.0000 -15.6627 -9.6978 -18.4237 6.4053 14.8099 46.5873 1.4878 -5.7031 -21.9054 0.4085 -4.1031 -11.3669 0.0000 0.0000 0.0000 11.1733 20.0157 -9.7727 -7.7643 -15.9431 51.7093 -3.1826 -3.7108 -35.1731 -0.6164 5.0245 -13.9785 -4.0412 0.2001 10.7419 -0.4083 -0.2430 1.8721 1.8863 -0.0825 -4.0537 -5.7442 1.7462 -9.9674 3.7381 2.7785 8.0877 2.2455 1.3983 3.9057 0.0000 0.0000 0.0000 -83.0170 -6.0469 21.9653 144.1652 -45.3991 -104.5953 -0.0000 0.0000 -6.5525 29.4215 17.7252 9.7427 -7.1250 0.0000 -0.0000 1.4208 50.1252 0.1795 0.0000 0.0000 0.0000 72.5100 3.6027 50.7148 -107.3974 58.8249 -75.0071 0.0000 -0.0000 -1.2194 -33.5298 7.8514 -5.1723 7.1250 -0.0000 -0.0000 -4.8174 -20.6021 -2.8240
4.1274 17.5085 -3.8074 7.5427 -41.9451 -4.8822 0.0000 0.0000 0.0000 -15.8845 -9.1700 -18.3672 6.4492 14.8499 46.7588 1.4684 -5.8346 -21.7464 0.3986 -4.0538 -11.2280 0.0000 0.0000 0.0000 11.0076 20.1588 -9.3854 -7.7116 -15.9030 51.5170 -3.1738 -3.4681 -35.0288 -0.5989 4.9541 -13.7778 -4.0290 0.2799 10.8468 -0.3556 -0.1395 1.8233 1.9203 -0.0282 -4.1692 -5.5698 2.0153 -9.8179 3.6270 3.1158 8.2333 2.2021 1.5613 3.9136 -0.0000 0.0000 0.0000 -83.3685 -5.7706 22.1202 143.9007 -45.5813 -104.4066 -0.0000 0.0000 -6.4860 29.3746 18.0307 9.8833 -7.1250 0.0000 -0.0000 1.3277 50.4576 0.1786 -0.0000 0.0000 0.0000 72.4451 3.8976 50.6569 -106.8780 58.8958 -74.5626 0.0000 -0.0000 -1.1298 -33.0391 7.9149 -5.1177 7.1250 -0.0000 -0.0000 -4.4603 -20.5765 -2.6160
4.1441 17.5110 -3.7767 7.6982 -42.2136 -5.0919 0.0000 0.0000 0.0000 -16.0834 -8.6613 -18.4657 6.4994 14.8954 46.9546 1.4277 -5.8983 -21.4282 0.4074 -4.0976 -11.3513 0.0000 0.0000 0.0000 10.7816 20.2103 -9.1733 -7.6574 -15.8614 51.3190 -3.1435 -3.3161 -34.8078 -0.6262 5.0638 -14.0906 -3.8644 0.2573 10.5883 -0.4003 -0.1383 1.9419 1.7798 -0.0370 -3.9026 -5.3794 2.3850 -9.8051 3.7266 3.5736 8.3045 2.2284 1.7980 3.9125 0.0000 -0.0000 0.0000 -83.5965 -5.7187 22.0078 143.5728 -45.8048 -104.1720 -0.0000 0.0000 -6.3876 29.3206 17.9125 9.8007 -7.1250 0.0000 -0.0000 1.2912 50.3163 0.1692 0.0000 -0.0000 0.0000 72.0430 4.6290 51.1890 -105.8931 59.0237 -73.7187 0.0000 -0.0000 -1.5396 -32.8925 7.8266 -5.0331 7.1250 -0.0000 -0.0000 -4.3642 -20.6953 -2.5476
4.1623 17.5235 -3.7452 7.9026 -42.5490 -5.3377 0.0000 0.0000 0.0000 -16.3390 -8.1525 -18.5696 6.5595 14.9494 47.1879 1.4055 -5.6585 -21.2728 0.5300 -4.6650 -12.9554 0.0000 0.0000 0.0000 10.5120 20.2898 -8.9912 -7.5990 -15.8162 51.1050 -3.0877 -3.2985 -34.5031 -0.6851 5.2920 -14.7434 -3.6602 0.2761 10.2441 -0.4888 -0.0759 2.1312 1.5636 -0.0187 -3.5189 -5.1374 2.7409 -9.7415 3.7839 4.0091 8.2308 2.2286 2.0241 3.8624 -0.0000 -0.0000 0.0000 -83.7658 -5.7373 22.0079 143.3168 -45.9773 -103.9882 -0.0000 0.0000 -6.2094 29.1319 17.8699 9.7047 -7.1250 0.0000 -0.0000 1.1078 50.2357 0.1430 -0.0000 -0.0000 0.0000 72.0692 5.3631 51.2947 -105.4676 59.0764 -73.3538 0.0000 -0.0000 -1.8375 -32.1711 7.5752 -4.7403 7.1250 -0.0000 -0.0000 -3.8703 -21.0598 -2.2260
4.1849 17.5459 -3.7138 7.9933 -43.0435 -5.5293 0.0000 0.0000 0.0000 -16.4823 -7.4525 -18.7642 6.6394 15.0205 47.4968 1.3663 -5.3320 -20.9903 0.6971 -5.3371 -14.8726 0.0000 0.0000 0.0000 10.3369 20.4627 -8.8248 -7.5373 -15.7682 50.8785 -3.0015 -3.2632 -34.0232 -0.7507 5.5342 -15.4388 -3.3950 0.3943 10.1025 -0.4968 0.1163 2.2517 1.3813 0.0691 -3.3251 -4.8748 3.0172 -9.7586 3.6773 4.3542 8.2593 2.1734 2.1967 3.8660 0.0000 -0.0000 0.0000 -84.0517 -5.6116 22.1936 143.2422 -46.0273 -103.9345 -0.0000 0.0000 -5.8811 28.7623 18.4028 9.8308 -7.1250 0.0000 -0.0000 0.6489 50.7621 0.0921 0.0000 -0.0000 0.0000 72.2709 5.9020 51.0391 -105.5724 59.0636 -73.4437 0.0000 -0.0000 -2.0688 -31.0372 7.1747 -4.2980 7.1250 -0.0000 -0.0000 -3.0862 -21.6267 -1.7340
4.2127 17.5783 -3.6820 7.9029 -43.6527 -5.6225 0.0000 0.0000 0.0000 -16.4330 -6.5988 -19.0339 6.7414 15.1102 47.8892 1.2847 -5.3118 -20.3328 0.7607 -5.5702 -15.5422 0.0000 0.0000 0.0000 10.2528 20.5762 -8.7226 -7.4749 -15.7191 50.6483 -2.8947 -2.9654 -33.3177 -0.7971 5.6988 -15.9128 -3.0285 0.5323 10.1919 -0.4175 0.3373 2.3081 1.2290 0.1750 -3.3254 -4.4717 3.2731 -9.9299 3.3660 4.6777 8.4483 2.0386 2.3510 3.9548 -0.0000 0.0000 0.0000 -84.4638 -5.3261 22.2801 143.2806 -46.0016 -103.9621 -0.0000 0.0000 -5.4598 28.3247 18.6028 9.7562 -7.1250 0.0000 -0.0000 0.1710 50.9051 0.0249 -0.0000 0.0000 0.0000 72.2966 6.3897 50.9327 -106.0288 59.0066 -73.8350 0.0000 -0.0000 -2.3361 -30.1567 6.6515 -3.8501 7.1250 -0.0000 -0.0000 -2.4854 -22.3011 -1.3576
4.2468 17.6174 -3.6512 7.8822 -44.1911 -5.7245 0.0000 0.0000 0.0000 -16.4175 -5.8232 -19.4167 6.8650 15.2171 48.3617 1.1842 -5.3075 -19.4954 0.8467 -5.8689 -16.4046 0.0000 0.0000 0.0000 9.9958 20.5496 -8.7669 -7.4213 -15.6767 50.4504 -2.7712 -2.3593 -32.3881 -0.7960 5.6947 -15.9012 -2.6742 0.6220 10.3101 -0.3345 0.4927 2.3766 1.0952 0.2484 -3.3243 -4.1119 3.5283 -10.1443 3.0011 5.0139 8.5829 1.8961 2.5075 4.0364 -0.0000 -0.0000 0.0000 -84.9391 -5.0808 22.2936 143.2992 -45.9891 -103.9755 -0.0000 0.0000 -4.9681 28.3718 18.1336 9.5414 -7.1250 0.0000 -0.0000 0.3007 50.3952 0.0400 -0.0000 -0.0000 0.0000 72.2253 6.9072 50.8827 -106.7612 58.9114 -74.4626 0.0000 -0.0000 -2.4262 -29.2453 6.3566 -3.5473 7.1250 -0.0000 -0.0000 -1.8381 -22.7050 -0.9867
4.2832 17.6616 -3.6227 7.7656 -44.6323 -5.6125 0.0000 0.0000 0.0000 -16.2949 -5.2255 -20.0270 7.0109 15.3411 48.9156 1.0693 -5.2022 -18.5038 1.0356 -6.4725 -18.1617 0.0000 0.0000 0.0000 9.7018 20.4449 -9.0597 -7.3793 -15.6431 50.2945 -2.6171 -1.7376 -31.2639 -0.8013 5.7133 -15.9548 -2.3550 0.7148 10.4717 -0.1384 0.6525 2.3135 1.0966 0.3281 -3.4843 -3.9281 3.7584 -10.1816 2.6741 5.3313 8.6418 1.7873 2.6507 4.0632 -0.0000 0.0000 0.0000 -85.5248 -4.6840 22.4805 143.4533 -45.8855 -104.0862 -0.0000 0.0000 -4.4509 28.4378 17.6383 9.3189 -7.1250 0.0000 -0.0000 0.4490 49.8586 0.0538 -0.0000 0.0000 0.0000 72.0080 7.1336 50.6926 -108.0536 58.7319 -75.5683 0.0000 -0.0000 -2.4568 -28.3275 6.1709 -3.3164 7.1250 -0.0000 -0.0000 -1.1747 -22.9777 -0.6230
4.3218 17.7143 -3.6004 7.6844 -45.1319 -5.4492 0.0000 0.0000 0.0000 -16.1471 -4.6571 -20.7811 7.1659 15.4700 49.4991 0.9247 -5.2152 -17.1720 1.1059 -6.6816 -18.7755 0.0000 0.0000 0.0000 9.3222 20.3954 -9.5435 -7.3488 -15.6187 50.1813 -2.4148 -1.1916 -29.8535 -0.8498 5.8794 -16.4350 -2.1879 0.8644 10.7929 0.1173 0.8710 2.1129 1.2341 0.4420 -3.8803 -3.8321 3.9867 -9.9848 2.2505 5.6643 8.2128 1.8346 2.7841 4.3416 -0.0000 0.0000 0.0000 -86.1783 -4.1341 22.7674 143.8629 -45.6072 -104.3796 -0.0000 0.0000 -4.0060 28.4531 17.7590 9.3853 -7.1250 0.0000 -0.0000 0.4446 49.9947 0.0547 -0.0000 0.0000 0.0000 71.7286 7.1303 50.4517 -109.8720 58.4540 -77.1203 0.0000 -0.0000 -2.3730 -27.4553 5.8343 -3.0233 7.1250 -0.0000 -0.0000 -0.5479 -23.4111 -0.2851
4.3643 17.7732 -3.5826 7.6456 -45.7500 -5.3606 0.0000 0.0000 0.0000 -15.9808 -3.9016 -21.5883 7.3252 15.5997 50.0937 0.7564 -5.2952 -15.4988 1.1928 -6.9303 -19.5090 0.0000 0.0000 0.0000 8.8988 20.4761 -10.0314 -7.3205 -15.5959 50.0762 -2.2027 -0.4654 -28.2719 -0.8898 6.0125 -16.8207 -1.9160 0.9847 11.0088 0.2456 1.0614 2.0833 1.1846 0.5350 -4.0354 -3.6608 4.2383 -9.8540 2.0279 5.9946 7.9762 1.7366 2.9443 4.2287 -0.0000 0.0000 0.0000 -86.5457 -3.9338 22.9258 144.2908 -45.3120 -104.6846 -0.0000 0.0000 -3.6022 28.3783 17.8369 9.3956 -7.1250 0.0000 -0.0000 0.3572 50.0681 0.0446 -0.0000 0.0000 0.0000 71.6912 7.4627 50.2668 -111.9503 58.0988 -78.8881 0.0000 -0.0000 -2.3043 -26.6103 5.6525 -2.8250 7.1250 -0.0000 -0.0000 0.0703 -23.6626 0.0362
4.4078 17.8364 -3.5591 7.5753 -46.3215 -5.3148 0.0000 0.0000 0.0000 -15.7671 -3.2032 -22.3114 7.4764 15.7203 50.6541 0.5852 -5.5034 -13.6294 1.2930 -7.2047 -20.3232 0.0000 0.0000 0.0000 8.4339 20.4502 -10.4388 -7.2827 -15.5654 49.9354 -2.0065 0.6842 -26.6146 -0.8600 5.9138 -16.5344 -1.4607 1.0384 11.0851 0.2832 1.1837 2.2285 0.9498 0.5874 -3.9222 -3.3174 4.5095 -9.8831 1.7370 6.3387 7.6702 1.5907 3.1142 4.1323 -0.0000 0.0000 0.0000 -86.6969 -3.9421 22.9585 144.7312 -45.0031 -104.9969 -0.0000 0.0000 -3.3905 28.0720 17.5326 9.1273 -7.1250 0.0000 -0.0000 0.1019 49.6794 0.0118 -0.0000 0.0000 0.0000 71.7740 8.0693 50.0475 -114.1904 57.6691 -80.7855 0.0000 -0.0000 -2.2873 -25.9026 5.8150 -2.8168 7.1250 -0.0000 -0.0000 0.6000 -23.5206 0.3107
4.4519 17.9021 -3.5308 7.6746 -46.8271 -5.4479 0.0000 0.0000 0.0000 -15.6813 -2.6484 -22.9032 7.6228 15.8347 51.1924 0.4143 -5.6957 -11.5373 1.2587 -7.1120 -20.0477 0.0000 0.0000 0.0000 7.7486 20.1574 -10.8638 -7.2311 -15.5234 49.7429 -1.7919 1.8443 -24.8068 -0.9002 6.0468 -16.9204 -1.2588 1.1026 11.3876 0.4271 1.2925 2.2699 0.9658 0.6390 -4.0480 -3.0354 4.7777 -9.8564 1.3185 6.6974 7.5251 1.4175 3.2805 4.0878 0.0000 0.0000 0.0000 -87.0952 -3.7095 23.0373 145.2391 -44.6407 -105.3549 -0.0000 0.0000 -3.4275 27.9679 17.1476 8.8977 -7.1250 0.0000 -0.0000 0.0614 49.2366 0.0064 0.0000 0.0000 0.0000 71.6408 8.4952 49.8459 -116.6496 57.1386 -82.8575 0.0000 -0.0000 -2.2531 -25.3576 6.2264 -2.9425 7.1250 -0.0000 -0.0000 1.0153 -23.0958 0.5357
4.4948 17.9717 -3.5034 7.8202 -47.3876 -5.6056 0.0000 0.0000 0.0000 -15.6282 -2.0334 -23.5037 7.7670 15.9452 51.7190 0.2609 -5.6281 -9.3190 1.1382 -6.7754 -19.0515 0.0000 0.0000 0.0000 7.0344 19.9924 -11.2656 -7.1552 -15.4612 49.4588 -1.5589 2.8669 -22.8558 -0.9521 6.2138 -17.4059 -1.1640 1.2055 11.6319 0.6204 1.4439 2.3195 1.0876 0.7126 -4.1378 -2.8447 5.0204 -9.7226 0.9126 7.0292 7.3598 1.2590 3.4320 4.0151 0.0000 0.0000 0.0000 -87.4898 -3.5518 23.2690 145.8993 -44.1592 -105.8168 -0.0000 0.0000 -3.5064 27.9121 17.4565 9.0296 -7.1250 0.0000 -0.0000 -0.0443 49.5685 -0.0050 0.0000 0.0000 0.0000 71.4131 8.9003 49.6158 -119.3288 56.4861 -85.0999 0.0000 -0.0000 -2.3196 -24.8267 6.5336 -3.0133 7.1250 -0.0000 -0.0000 1.4150 -22.7881 0.7567
4.5393 18.0385 -3.4803 7.7573 -47.9793 -5.5786 0.0000 0.0000 0.0000 -15.3693 -1.3650 -24.2439 7.9216 16.0613 52.2799 0.1327 -5.5492 -7.0509 1.0741 -6.5881 -18.5006 0.0000 0.0000 0.0000 6.5175 20.0814 -11.5687 -7.0486 -15.3727 49.0579 -1.3347 3.9553 -20.8984 -0.9135 6.0902 -17.0463 -0.8462 1.2873 11.7205 0.7444 1.5917 2.4763 1.0156 0.7797 -4.0220 -2.5523 5.2726 -9.5451 0.5623 7.3503 6.9906 1.0942 3.5879 3.8659 -0.0000 0.0000 0.0000 -87.5367 -3.6976 23.6037 146.5440 -43.6776 -106.2640 -0.0000 0.0000 -3.5144 28.0117 17.8794 9.2758 -7.1250 0.0000 -0.0000 -0.0167 50.0521 -0.0021 -0.0000 0.0000 0.0000 71.4155 9.5432 49.4368 -121.9074 55.7799 -87.2411 0.0000 -0.0000 -2.2739 -24.5776 6.7288 -3.0675 7.1250 -0.0000 -0.0000 1.6034 -22.5886 0.8648
